<svg width="515" height="109" viewBox="0 0 515 109" fill="none" xmlns="http://www.w3.org/2000/svg">
<path d="M63.5659 6.36364H70V0H0V6.36364H5.89612C6.89097 29.6876 18.4208 42.5524 30.237 54.4496C18.4702 66.297 6.98791 79.1036 5.90927 102.242H0V108.606H70V102.242H63.5528C62.4742 79.1036 50.9918 66.297 39.2252 54.4496C51.0415 42.5524 62.5711 29.6876 63.5659 6.36364V6.36364ZM34.7312 49.9444C30.8327 46.0191 27.0665 42.0876 23.7644 37.7688C28.5498 37.1339 32.2059 36.2205 35.7717 35.3292C39.8188 34.3174 43.6976 33.3482 49.1708 32.7734C45.1784 39.1652 40.0786 44.5601 34.7312 49.9444V49.9444ZM57.1957 6.36364C56.8345 14.0702 55.2071 20.4918 52.7236 26.0992C44.4426 26.6034 39.2552 27.8988 34.2283 29.1556C29.9032 30.237 25.7927 31.2641 19.7107 31.8205C15.5826 24.9147 12.7565 16.8244 12.2663 6.36364H57.1957ZM22.7651 102.242L32.568 90.6453C33.1749 89.9271 34.0614 89.5151 35 89.5151C35.9386 89.5151 36.8251 89.9271 37.4322 90.6453L47.2349 102.242H22.7651ZM55.5677 102.242L42.2923 86.5372C40.4736 84.3856 37.8155 83.1515 35 83.1515C32.1845 83.1515 29.5264 84.3856 27.7077 86.5372L14.4323 102.242H12.2795C13.335 81.6474 23.4854 70.2783 34.7312 58.9548C45.9769 70.2781 56.1273 81.6474 57.1826 102.242H55.5677Z" fill="#F2F3F5"/>
<g clip-path="url(#clip0)">
<path d="M40.1165 68.1585L35.2558 63.4001C35.1384 63.2588 34.9288 63.2394 34.7875 63.3568C34.7718 63.3698 34.7572 63.3843 34.7442 63.4001L29.8835 68.1585C29.728 68.3026 29.7188 68.5454 29.8629 68.7008C29.9343 68.7779 30.0342 68.8223 30.1393 68.8237H32.4417V74.9891C32.4854 75.2467 32.6938 75.4447 32.9534 75.4752H37.0466C37.2513 75.4752 37.3024 75.2194 37.3024 74.9891V68.8237H39.8607C40.0726 68.8209 40.2422 68.6468 40.2394 68.4349C40.238 68.3298 40.1936 68.2299 40.1165 68.1585Z" fill="#F2F3F5"/>
<path d="M37.0466 76.2427H32.9534C32.7414 76.2427 32.5696 76.4145 32.5696 76.6264C32.5696 76.8384 32.7414 77.0102 32.9534 77.0102H37.0466C37.2585 77.0102 37.4304 76.8384 37.4304 76.6264C37.4304 76.4145 37.2586 76.2427 37.0466 76.2427Z" fill="#F2F3F5"/>
<path d="M37.0466 77.7776H32.9534C32.7414 77.7776 32.5696 77.9494 32.5696 78.1613C32.5696 78.3733 32.7414 78.5451 32.9534 78.5451H37.0466C37.2585 78.5451 37.4304 78.3733 37.4304 78.1613C37.4304 77.9494 37.2586 77.7776 37.0466 77.7776Z" fill="#F2F3F5"/>
<path d="M37.0466 79.3125H32.9534C32.7414 79.3125 32.5696 79.4843 32.5696 79.6963C32.5696 79.9082 32.7414 80.08 32.9534 80.08H37.0466C37.2585 80.08 37.4304 79.9082 37.4304 79.6963C37.4304 79.4843 37.2586 79.3125 37.0466 79.3125Z" fill="#F2F3F5"/>
</g>
<path d="M38.45 40.41H35.9C35.8172 40.41 35.75 40.3428 35.75 40.26V37.71C35.75 37.2958 35.4142 36.96 35 36.96C34.5858 36.96 34.25 37.2958 34.25 37.71V40.26C34.25 40.3428 34.1828 40.41 34.1 40.41H31.55C31.1358 40.41 30.8 40.7458 30.8 41.16C30.8 41.5741 31.1358 41.91 31.55 41.91H34.1C34.1828 41.91 34.25 41.9771 34.25 42.06V44.61C34.25 45.0241 34.5858 45.36 35 45.36C35.4142 45.36 35.75 45.0241 35.75 44.61V42.06C35.75 41.9771 35.8172 41.91 35.9 41.91H38.45C38.8642 41.91 39.2 41.5741 39.2 41.16C39.2 40.7458 38.8642 40.41 38.45 40.41Z" fill="#F2F3F5"/>
<path d="M100.04 27.048C101.432 27 104.072 26.976 107.96 26.976C111.896 26.976 114.56 27 115.952 27.048C120.896 27.144 124.784 28.464 127.616 31.008C130.448 33.552 131.864 37.08 131.864 41.592C131.864 44.808 131.144 47.664 129.704 50.16C128.264 52.608 126.224 54.504 123.584 55.848C120.992 57.192 118.04 57.864 114.728 57.864H110.048V75H100.04V27.048ZM114.296 49.368C116.648 49.368 118.472 48.696 119.768 47.352C121.112 46.008 121.784 44.184 121.784 41.88C121.784 37.656 119.456 35.544 114.8 35.544H110.048V49.368H114.296ZM155.347 76.08C151.603 76.08 148.291 75.264 145.411 73.632C142.579 72 140.371 69.72 138.787 66.792C137.203 63.816 136.411 60.384 136.411 56.496C136.411 52.608 137.179 49.2 138.715 46.272C140.299 43.296 142.507 40.992 145.339 39.36C148.219 37.728 151.531 36.912 155.275 36.912C159.019 36.912 162.307 37.728 165.139 39.36C168.019 40.944 170.227 43.2 171.763 46.128C173.347 49.056 174.139 52.44 174.139 56.28C174.139 60.168 173.347 63.624 171.763 66.648C170.227 69.624 168.019 71.952 165.139 73.632C162.307 75.264 159.043 76.08 155.347 76.08ZM155.275 67.296C157.867 67.296 159.931 66.312 161.467 64.344C163.051 62.328 163.843 59.688 163.843 56.424C163.843 53.16 163.051 50.568 161.467 48.648C159.931 46.68 157.867 45.696 155.275 45.696C152.683 45.696 150.595 46.68 149.011 48.648C147.475 50.568 146.707 53.16 146.707 56.424C146.707 59.688 147.475 62.328 149.011 64.344C150.595 66.312 152.683 67.296 155.275 67.296ZM181.664 37.92H191.6V43.68C194.528 39.168 198.488 36.912 203.48 36.912C206.312 36.912 208.712 37.584 210.68 38.928C212.696 40.224 214.16 42.096 215.072 44.544C216.752 41.904 218.624 39.984 220.688 38.784C222.8 37.536 225.2 36.912 227.888 36.912C231.872 36.912 234.968 38.112 237.176 40.512C239.432 42.864 240.56 46.152 240.56 50.376V75H230.408V51.96C230.408 50.04 229.928 48.552 228.968 47.496C228.056 46.392 226.808 45.84 225.224 45.84C223.256 45.84 221.432 46.656 219.752 48.288C218.072 49.92 216.824 52.008 216.008 54.552V75H205.856V51.96C205.856 50.088 205.376 48.6 204.416 47.496C203.456 46.392 202.184 45.84 200.6 45.84C198.824 45.84 197.144 46.512 195.56 47.856C194.024 49.152 192.776 51 191.816 53.4V75H181.664V37.92ZM267.074 76.08C263.33 76.08 260.018 75.264 257.138 73.632C254.306 72 252.098 69.72 250.514 66.792C248.93 63.816 248.138 60.384 248.138 56.496C248.138 52.608 248.906 49.2 250.442 46.272C252.026 43.296 254.234 40.992 257.066 39.36C259.946 37.728 263.258 36.912 267.002 36.912C270.746 36.912 274.034 37.728 276.866 39.36C279.746 40.944 281.954 43.2 283.49 46.128C285.074 49.056 285.866 52.44 285.866 56.28C285.866 60.168 285.074 63.624 283.49 66.648C281.954 69.624 279.746 71.952 276.866 73.632C274.034 75.264 270.77 76.08 267.074 76.08ZM267.002 67.296C269.594 67.296 271.658 66.312 273.194 64.344C274.778 62.328 275.57 59.688 275.57 56.424C275.57 53.16 274.778 50.568 273.194 48.648C271.658 46.68 269.594 45.696 267.002 45.696C264.41 45.696 262.322 46.68 260.738 48.648C259.202 50.568 258.434 53.16 258.434 56.424C258.434 59.688 259.202 62.328 260.738 64.344C262.322 66.312 264.41 67.296 267.002 67.296ZM293.391 22.44H303.543V43.32C305.031 41.112 306.735 39.504 308.655 38.496C310.575 37.44 312.783 36.912 315.279 36.912C319.263 36.912 322.383 38.112 324.639 40.512C326.895 42.864 328.023 46.152 328.023 50.376V75H317.871V51.96C317.871 50.04 317.391 48.552 316.431 47.496C315.471 46.392 314.175 45.84 312.543 45.84C310.767 45.84 309.063 46.464 307.431 47.712C305.847 48.912 304.551 50.52 303.543 52.536V75H293.391V22.44ZM354.903 76.08C348.903 76.08 344.175 74.352 340.719 70.896C337.311 67.44 335.607 62.64 335.607 56.496C335.607 52.512 336.351 49.056 337.839 46.128C339.327 43.152 341.415 40.872 344.103 39.288C346.839 37.704 350.031 36.912 353.679 36.912C359.055 36.912 363.183 38.64 366.063 42.096C368.943 45.552 370.383 50.544 370.383 57.072C370.383 58.176 370.359 58.992 370.311 59.52H345.831C346.311 62.064 347.415 64.008 349.143 65.352C350.871 66.648 353.199 67.296 356.127 67.296C357.903 67.296 359.751 67.08 361.671 66.648C363.591 66.168 365.271 65.544 366.711 64.776L368.367 72.912C366.447 73.92 364.311 74.688 361.959 75.216C359.655 75.792 357.303 76.08 354.903 76.08ZM360.663 51.888C360.519 49.824 359.799 48.192 358.503 46.992C357.207 45.744 355.479 45.12 353.319 45.12C351.255 45.12 349.551 45.72 348.207 46.92C346.911 48.12 346.095 49.776 345.759 51.888H360.663ZM389.056 76.08C385.216 76.08 382.168 74.448 379.912 71.184C377.656 67.92 376.528 63.48 376.528 57.864C376.528 51.048 378.256 45.864 381.712 42.312C385.168 38.712 390.136 36.912 396.616 36.912C400.264 36.912 404.536 37.488 409.432 38.64V75H399.784L400 69.096H399.712C398.464 71.352 396.928 73.08 395.104 74.28C393.328 75.48 391.312 76.08 389.056 76.08ZM391.216 67.224C392.704 67.224 394.168 66.432 395.608 64.848C397.048 63.264 398.392 61.152 399.64 58.512V46.416C398.104 45.984 396.568 45.768 395.032 45.768C392.152 45.768 389.968 46.752 388.48 48.72C387.04 50.688 386.32 53.592 386.32 57.432C386.32 60.456 386.752 62.856 387.616 64.632C388.48 66.36 389.68 67.224 391.216 67.224ZM416.399 66.288H422.951V31.08H416.759V22.44H433.103V66.288H439.655V75H416.399V66.288ZM458.874 76.08C455.418 76.08 452.73 75.216 450.81 73.488C448.938 71.712 448.002 69.216 448.002 66V46.632H442.242V37.92H448.002V30C451.41 29.424 454.77 28.992 458.082 28.704V37.92H467.442V46.632H458.082V64.128C458.082 65.136 458.37 65.904 458.946 66.432C459.57 66.96 460.434 67.224 461.538 67.224C462.882 67.224 464.418 66.912 466.146 66.288L468.378 73.92C465.306 75.36 462.138 76.08 458.874 76.08ZM475.571 22.44H485.723V43.32C487.211 41.112 488.915 39.504 490.835 38.496C492.755 37.44 494.963 36.912 497.459 36.912C501.443 36.912 504.563 38.112 506.819 40.512C509.075 42.864 510.203 46.152 510.203 50.376V75H500.051V51.96C500.051 50.04 499.571 48.552 498.611 47.496C497.651 46.392 496.355 45.84 494.723 45.84C492.947 45.84 491.243 46.464 489.611 47.712C488.027 48.912 486.731 50.52 485.723 52.536V75H475.571V22.44Z" fill="#F2F3F5"/>
<path d="M100.04 27.048C101.432 27 104.072 26.976 107.96 26.976C111.896 26.976 114.56 27 115.952 27.048C120.896 27.144 124.784 28.464 127.616 31.008C130.448 33.552 131.864 37.08 131.864 41.592C131.864 44.808 131.144 47.664 129.704 50.16C128.264 52.608 126.224 54.504 123.584 55.848C120.992 57.192 118.04 57.864 114.728 57.864H110.048V75H100.04V27.048ZM114.296 49.368C116.648 49.368 118.472 48.696 119.768 47.352C121.112 46.008 121.784 44.184 121.784 41.88C121.784 37.656 119.456 35.544 114.8 35.544H110.048V49.368H114.296ZM155.347 76.08C151.603 76.08 148.291 75.264 145.411 73.632C142.579 72 140.371 69.72 138.787 66.792C137.203 63.816 136.411 60.384 136.411 56.496C136.411 52.608 137.179 49.2 138.715 46.272C140.299 43.296 142.507 40.992 145.339 39.36C148.219 37.728 151.531 36.912 155.275 36.912C159.019 36.912 162.307 37.728 165.139 39.36C168.019 40.944 170.227 43.2 171.763 46.128C173.347 49.056 174.139 52.44 174.139 56.28C174.139 60.168 173.347 63.624 171.763 66.648C170.227 69.624 168.019 71.952 165.139 73.632C162.307 75.264 159.043 76.08 155.347 76.08ZM155.275 67.296C157.867 67.296 159.931 66.312 161.467 64.344C163.051 62.328 163.843 59.688 163.843 56.424C163.843 53.16 163.051 50.568 161.467 48.648C159.931 46.68 157.867 45.696 155.275 45.696C152.683 45.696 150.595 46.68 149.011 48.648C147.475 50.568 146.707 53.16 146.707 56.424C146.707 59.688 147.475 62.328 149.011 64.344C150.595 66.312 152.683 67.296 155.275 67.296ZM181.664 37.92H191.6V43.68C194.528 39.168 198.488 36.912 203.48 36.912C206.312 36.912 208.712 37.584 210.68 38.928C212.696 40.224 214.16 42.096 215.072 44.544C216.752 41.904 218.624 39.984 220.688 38.784C222.8 37.536 225.2 36.912 227.888 36.912C231.872 36.912 234.968 38.112 237.176 40.512C239.432 42.864 240.56 46.152 240.56 50.376V75H230.408V51.96C230.408 50.04 229.928 48.552 228.968 47.496C228.056 46.392 226.808 45.84 225.224 45.84C223.256 45.84 221.432 46.656 219.752 48.288C218.072 49.92 216.824 52.008 216.008 54.552V75H205.856V51.96C205.856 50.088 205.376 48.6 204.416 47.496C203.456 46.392 202.184 45.84 200.6 45.84C198.824 45.84 197.144 46.512 195.56 47.856C194.024 49.152 192.776 51 191.816 53.4V75H181.664V37.92ZM267.074 76.08C263.33 76.08 260.018 75.264 257.138 73.632C254.306 72 252.098 69.72 250.514 66.792C248.93 63.816 248.138 60.384 248.138 56.496C248.138 52.608 248.906 49.2 250.442 46.272C252.026 43.296 254.234 40.992 257.066 39.36C259.946 37.728 263.258 36.912 267.002 36.912C270.746 36.912 274.034 37.728 276.866 39.36C279.746 40.944 281.954 43.2 283.49 46.128C285.074 49.056 285.866 52.44 285.866 56.28C285.866 60.168 285.074 63.624 283.49 66.648C281.954 69.624 279.746 71.952 276.866 73.632C274.034 75.264 270.77 76.08 267.074 76.08ZM267.002 67.296C269.594 67.296 271.658 66.312 273.194 64.344C274.778 62.328 275.57 59.688 275.57 56.424C275.57 53.16 274.778 50.568 273.194 48.648C271.658 46.68 269.594 45.696 267.002 45.696C264.41 45.696 262.322 46.68 260.738 48.648C259.202 50.568 258.434 53.16 258.434 56.424C258.434 59.688 259.202 62.328 260.738 64.344C262.322 66.312 264.41 67.296 267.002 67.296ZM293.391 22.44H303.543V43.32C305.031 41.112 306.735 39.504 308.655 38.496C310.575 37.44 312.783 36.912 315.279 36.912C319.263 36.912 322.383 38.112 324.639 40.512C326.895 42.864 328.023 46.152 328.023 50.376V75H317.871V51.96C317.871 50.04 317.391 48.552 316.431 47.496C315.471 46.392 314.175 45.84 312.543 45.84C310.767 45.84 309.063 46.464 307.431 47.712C305.847 48.912 304.551 50.52 303.543 52.536V75H293.391V22.44ZM354.903 76.08C348.903 76.08 344.175 74.352 340.719 70.896C337.311 67.44 335.607 62.64 335.607 56.496C335.607 52.512 336.351 49.056 337.839 46.128C339.327 43.152 341.415 40.872 344.103 39.288C346.839 37.704 350.031 36.912 353.679 36.912C359.055 36.912 363.183 38.64 366.063 42.096C368.943 45.552 370.383 50.544 370.383 57.072C370.383 58.176 370.359 58.992 370.311 59.52H345.831C346.311 62.064 347.415 64.008 349.143 65.352C350.871 66.648 353.199 67.296 356.127 67.296C357.903 67.296 359.751 67.08 361.671 66.648C363.591 66.168 365.271 65.544 366.711 64.776L368.367 72.912C366.447 73.92 364.311 74.688 361.959 75.216C359.655 75.792 357.303 76.08 354.903 76.08ZM360.663 51.888C360.519 49.824 359.799 48.192 358.503 46.992C357.207 45.744 355.479 45.12 353.319 45.12C351.255 45.12 349.551 45.72 348.207 46.92C346.911 48.12 346.095 49.776 345.759 51.888H360.663ZM389.056 76.08C385.216 76.08 382.168 74.448 379.912 71.184C377.656 67.92 376.528 63.48 376.528 57.864C376.528 51.048 378.256 45.864 381.712 42.312C385.168 38.712 390.136 36.912 396.616 36.912C400.264 36.912 404.536 37.488 409.432 38.64V75H399.784L400 69.096H399.712C398.464 71.352 396.928 73.08 395.104 74.28C393.328 75.48 391.312 76.08 389.056 76.08ZM391.216 67.224C392.704 67.224 394.168 66.432 395.608 64.848C397.048 63.264 398.392 61.152 399.64 58.512V46.416C398.104 45.984 396.568 45.768 395.032 45.768C392.152 45.768 389.968 46.752 388.48 48.72C387.04 50.688 386.32 53.592 386.32 57.432C386.32 60.456 386.752 62.856 387.616 64.632C388.48 66.36 389.68 67.224 391.216 67.224ZM416.399 66.288H422.951V31.08H416.759V22.44H433.103V66.288H439.655V75H416.399V66.288ZM458.874 76.08C455.418 76.08 452.73 75.216 450.81 73.488C448.938 71.712 448.002 69.216 448.002 66V46.632H442.242V37.92H448.002V30C451.41 29.424 454.77 28.992 458.082 28.704V37.92H467.442V46.632H458.082V64.128C458.082 65.136 458.37 65.904 458.946 66.432C459.57 66.96 460.434 67.224 461.538 67.224C462.882 67.224 464.418 66.912 466.146 66.288L468.378 73.92C465.306 75.36 462.138 76.08 458.874 76.08ZM475.571 22.44H485.723V43.32C487.211 41.112 488.915 39.504 490.835 38.496C492.755 37.44 494.963 36.912 497.459 36.912C501.443 36.912 504.563 38.112 506.819 40.512C509.075 42.864 510.203 46.152 510.203 50.376V75H500.051V51.96C500.051 50.04 499.571 48.552 498.611 47.496C497.651 46.392 496.355 45.84 494.723 45.84C492.947 45.84 491.243 46.464 489.611 47.712C488.027 48.912 486.731 50.52 485.723 52.536V75H475.571V22.44Z" fill="#F2F3F5"/>
<defs>
<clipPath id="clip0">
<rect width="16.8" height="16.8" fill="white" transform="translate(26.6 63.28)"/>
</clipPath>
</defs>
</svg>
