<svg width="41" height="70" viewBox="0 0 41 70" fill="none" xmlns="http://www.w3.org/2000/svg">
<path d="M20.3056 36.1309C19.7274 36.1309 19.17 35.9215 18.7356 35.541C17.095 34.1064 15.5133 32.7583 14.1178 31.5692L14.1107 31.563C10.0193 28.0763 6.48616 25.0653 4.0279 22.0992C1.27994 18.7834 0 15.6394 0 12.2049C0 8.86789 1.14423 5.78934 3.2217 3.53588C5.32396 1.25578 8.20856 0 11.3451 0C13.6893 0 15.8362 0.741134 17.7259 2.20264C18.6796 2.94037 19.544 3.84324 20.3056 4.89638C21.0675 3.84324 21.9316 2.94037 22.8856 2.20264C24.7753 0.741134 26.9222 0 29.2664 0C32.4026 0 35.2875 1.25578 37.3898 3.53588C39.4673 5.78934 40.6112 8.86789 40.6112 12.2049C40.6112 15.6394 39.3315 18.7834 36.5836 22.0989C34.1253 25.0653 30.5925 28.076 26.5017 31.5623C25.1038 32.7534 23.5195 34.1036 21.8752 35.5416C21.4411 35.9215 20.8834 36.1309 20.3056 36.1309V36.1309ZM11.3451 2.37894C8.88091 2.37894 6.61723 3.36237 4.97043 5.14828C3.29916 6.96115 2.37863 9.46712 2.37863 12.2049C2.37863 15.0935 3.45222 17.6769 5.85936 20.5813C8.18594 23.3888 11.6465 26.3378 15.6534 29.7526L15.6608 29.7588C17.0616 30.9526 18.6495 32.306 20.3022 33.751C21.9648 32.3032 23.5552 30.9476 24.9587 29.752C28.9653 26.3372 32.4256 23.3888 34.7521 20.5813C37.159 17.6769 38.2325 15.0935 38.2325 12.2049C38.2325 9.46712 37.312 6.96115 35.6407 5.14828C33.9943 3.36237 31.7303 2.37894 29.2664 2.37894C27.4613 2.37894 25.804 2.95276 24.3406 4.08429C23.0365 5.09313 22.1281 6.36842 21.5954 7.26076C21.3216 7.71963 20.8394 7.99353 20.3056 7.99353C19.7717 7.99353 19.2896 7.71963 19.0157 7.26076C18.4834 6.36842 17.575 5.09313 16.2706 4.08429C14.8072 2.95276 13.1499 2.37894 11.3451 2.37894V2.37894Z" fill="#F2F3F5"/>
<path d="M20.3056 33.8691C20.8837 33.8691 21.4411 34.0785 21.8755 34.459C23.5161 35.8936 25.0979 37.2417 26.4934 38.4308L26.5005 38.437C30.5919 41.9237 34.125 44.9347 36.5833 47.9008C39.3312 51.2166 40.6112 54.3606 40.6112 57.7951C40.6112 61.1321 39.4669 64.2107 37.3895 66.4641C35.2872 68.7442 32.4026 70 29.2661 70C26.9219 70 24.775 69.2589 22.8853 67.7974C21.9316 67.0596 21.0672 66.1568 20.3056 65.1036C19.5437 66.1568 18.6796 67.0596 17.7256 67.7974C15.8359 69.2589 13.689 70 11.3447 70C8.20855 70 5.32364 68.7442 3.22139 66.4641C1.14392 64.2107 -3.8147e-06 61.1321 -3.8147e-06 57.7951C-3.8147e-06 54.3606 1.27963 51.2166 4.02759 47.9011C6.48585 44.9347 10.0186 41.924 14.1094 38.4377C15.5074 37.2466 17.0916 35.8964 18.7359 34.4584C19.17 34.0785 19.7277 33.8691 20.3056 33.8691V33.8691ZM29.2661 67.6211C31.7303 67.6211 33.994 66.6376 35.6407 64.8517C37.312 63.0389 38.2325 60.5329 38.2325 57.7951C38.2325 54.9065 37.159 52.3231 34.7518 49.4187C32.4252 46.6112 28.9646 43.6622 24.9578 40.2474L24.9504 40.2412C23.5496 39.0474 21.9617 37.694 20.309 36.249C18.6464 37.6968 17.056 39.0524 15.6524 40.248C11.6459 43.6628 8.18563 46.6112 5.85905 49.4187C3.45222 52.3231 2.37863 54.9065 2.37863 57.7951C2.37863 60.5329 3.29916 63.0389 4.97043 64.8517C6.61691 66.6376 8.8809 67.6211 11.3447 67.6211C13.1499 67.6211 14.8072 67.0472 16.2706 65.9157C17.5747 64.9069 18.4831 63.6316 19.0157 62.7392C19.2896 62.2804 19.7717 62.0065 20.3056 62.0065C20.8394 62.0065 21.3215 62.2804 21.5954 62.7392C22.1277 63.6316 23.0362 64.9069 24.3406 65.9157C25.804 67.0472 27.4613 67.6211 29.2661 67.6211V67.6211Z" fill="#F2F3F5"/>
<path d="M20.3 36.4001C20.7983 36.4001 21.2786 36.5806 21.653 36.9085C23.0669 38.1448 24.4301 39.3067 25.6328 40.3315L25.639 40.3369C29.1651 43.3417 32.21 45.9367 34.3286 48.493C36.6969 51.3507 37.8 54.0603 37.8 57.0203C37.8 59.8962 36.8139 62.5494 35.0234 64.4915C33.2116 66.4566 30.7256 67.5388 28.0225 67.5388C26.0021 67.5388 24.1519 66.9001 22.5233 65.6405C21.7014 65.0047 20.9563 64.2266 20.3 63.319C19.6434 64.2266 18.8986 65.0047 18.0764 65.6405C16.4478 66.9001 14.5976 67.5388 12.5772 67.5388C9.87438 67.5388 7.38808 66.4566 5.57629 64.4915C3.78586 62.5494 2.79999 59.8962 2.79999 57.0203C2.79999 54.0603 3.90282 51.3507 6.2711 48.4933C8.3897 45.9367 11.4344 43.342 14.9599 40.3374C16.1648 39.3109 17.5301 38.1472 18.9472 36.9079C19.3213 36.5806 19.802 36.4001 20.3 36.4001V36.4001ZM28.0225 65.4886C30.1461 65.4886 32.0971 64.641 33.5163 63.1019C34.9567 61.5395 35.75 59.3798 35.75 57.0203C35.75 54.5308 34.8248 52.3043 32.7502 49.8012C30.7451 47.3816 27.7626 44.84 24.3094 41.8971L24.303 41.8918C23.0958 40.8629 21.7273 39.6965 20.3029 38.4511C18.87 39.6989 17.4994 40.8672 16.2897 41.8976C12.8368 44.8406 9.85462 47.3816 7.8495 49.8012C5.77522 52.3043 4.84997 54.5308 4.84997 57.0203C4.84997 59.3798 5.64331 61.5395 7.08366 63.1019C8.50266 64.641 10.4538 65.4886 12.5772 65.4886C14.133 65.4886 15.5613 64.994 16.8225 64.0188C17.9464 63.1494 18.7293 62.0503 19.1883 61.2813C19.4244 60.8858 19.8399 60.6497 20.3 60.6497C20.7601 60.6497 21.1756 60.8858 21.4116 61.2813C21.8704 62.0503 22.6533 63.1494 23.7775 64.0188C25.0387 64.994 26.467 65.4886 28.0225 65.4886V65.4886Z" fill="#F2F3F5"/>
<path d="M20.3 32.5387C19.8017 32.5387 19.3213 32.3582 18.947 32.0302C17.533 30.7939 16.1699 29.6321 14.9672 28.6072L14.961 28.6019C11.4349 25.597 8.38997 23.002 6.27136 20.4457C3.90308 17.588 2.79999 14.8784 2.79999 11.9184C2.79999 9.04253 3.78613 6.38934 5.57655 4.44724C7.38834 2.48217 9.87438 1.3999 12.5775 1.3999C14.5979 1.3999 16.4481 2.03864 18.0767 3.29821C18.8986 3.93401 19.6436 4.71213 20.3 5.61976C20.9566 4.71213 21.7014 3.93401 22.5235 3.29821C24.1521 2.03864 26.0024 1.3999 28.0227 1.3999C30.7256 1.3999 33.2119 2.48217 35.0237 4.44724C36.8141 6.38934 37.8 9.04253 37.8 11.9184C37.8 14.8784 36.6972 17.588 34.3289 20.4455C32.2103 23.002 29.1656 25.5967 25.64 28.6013C24.4352 29.6278 23.0699 30.7915 21.6528 32.0308C21.2786 32.3582 20.798 32.5387 20.3 32.5387V32.5387ZM12.5775 3.45015C10.4538 3.45015 8.50292 4.2977 7.08366 5.83685C5.64331 7.39924 4.84997 9.55897 4.84997 11.9184C4.84997 14.4079 5.77522 16.6344 7.84977 19.1376C9.85489 21.5571 12.8373 24.0987 16.2906 27.0416L16.297 27.047C17.5042 28.0758 18.8727 29.2422 20.2971 30.4876C21.7299 29.2398 23.1006 28.0715 24.3102 27.0411C27.7632 24.0982 30.7454 21.5571 32.7505 19.1376C34.8248 16.6344 35.75 14.4079 35.75 11.9184C35.75 9.55897 34.9567 7.39924 33.5163 5.83685C32.0973 4.2977 30.1461 3.45015 28.0227 3.45015C26.467 3.45015 25.0387 3.94469 23.7775 4.91988C22.6536 5.78932 21.8707 6.88841 21.4116 7.65746C21.1756 8.05293 20.7601 8.28898 20.3 8.28898C19.8399 8.28898 19.4244 8.05293 19.1883 7.65746C18.7296 6.88841 17.9467 5.78932 16.8225 4.91988C15.5613 3.94469 14.133 3.45015 12.5775 3.45015V3.45015Z" fill="#F2F3F5"/>
</svg>
