<svg width="528" height="116" viewBox="0 0 528 116" fill="none" xmlns="http://www.w3.org/2000/svg">
<rect width="528" height="116" fill="#4F3B78"/>
<path d="M126.89 85.966C126.89 86.89 126.56 87.66 125.9 88.276C125.24 88.892 124.448 89.2 123.524 89.2C122.6 89.2 121.83 88.87 121.214 88.21C120.598 87.55 120.29 86.758 120.29 85.834C120.466 77.166 120.554 63.328 120.554 44.32C120.554 43.396 120.862 42.626 121.478 42.01C122.138 41.35 122.93 41.02 123.854 41.02C124.514 41.02 125.108 41.328 125.636 41.944C126.208 42.516 126.626 43.242 126.89 44.122L127.814 43.528C130.454 41.944 133.072 41.086 135.668 40.954C138.264 40.822 140.596 41.394 142.664 42.67C144.6 43.77 146.228 45.31 147.548 47.29C148.912 49.27 149.902 51.426 150.518 53.758C151.002 55.43 151.266 57.212 151.31 59.104C151.354 60.996 151.112 62.756 150.584 64.384C150.056 66.012 149.286 67.618 148.274 69.202C147.262 70.786 145.832 72.172 143.984 73.36C142.18 74.548 140.09 75.362 137.714 75.802C133.622 76.55 130.08 75.846 127.088 73.69C127.044 77.782 126.978 81.874 126.89 85.966ZM136.526 69.334C139.87 68.718 142.202 67.134 143.522 64.582C144.886 61.986 145.106 58.95 144.182 55.474C143.258 52.042 141.652 49.688 139.364 48.412C137.032 47.048 134.326 47.312 131.246 49.204C129.838 50.04 129.024 50.59 128.804 50.854C128.672 50.986 128.562 51.118 128.474 51.25C128.386 51.338 128.232 51.58 128.012 51.976L127.154 53.164V63.988C127.374 64.208 127.55 64.45 127.682 64.714C128.914 66.65 130.212 67.992 131.576 68.74C132.94 69.488 134.59 69.686 136.526 69.334ZM176.527 75.538C170.719 76.946 166.077 75.78 162.601 72.04C159.829 69.18 158.113 65.506 157.453 61.018C156.969 57.498 157.387 54.154 158.707 50.986C160.291 46.938 162.799 43.946 166.231 42.01C166.935 41.614 167.815 41.328 168.871 41.152C168.915 41.152 169.223 41.13 169.795 41.086C170.015 41.042 170.191 40.998 170.323 40.954C170.983 40.822 171.643 40.888 172.303 41.152C172.479 41.152 172.897 41.174 173.557 41.218C174.217 41.218 174.657 41.24 174.877 41.284C175.097 41.284 175.471 41.328 175.999 41.416C176.571 41.46 177.033 41.526 177.385 41.614L178.639 42.076C179.167 42.252 179.673 42.472 180.157 42.736C180.641 43 181.169 43.308 181.741 43.66C184.601 45.596 186.581 48.324 187.681 51.844C188.781 55.32 189.067 58.136 188.539 60.292C188.143 62.668 187.439 64.89 186.427 66.958C185.415 68.982 184.007 70.786 182.203 72.37C180.443 73.954 178.551 75.01 176.527 75.538ZM174.481 68.674C176.373 68.41 177.979 67.442 179.299 65.77C180.663 64.054 181.543 62.25 181.939 60.358C182.379 58.466 182.225 56.398 181.477 54.154C180.773 51.866 179.629 50.216 178.045 49.204C177.561 48.852 177.165 48.61 176.857 48.478C176.549 48.302 176.175 48.17 175.735 48.082C175.339 47.95 175.009 47.884 174.745 47.884C174.525 47.884 174.019 47.862 173.227 47.818C172.435 47.774 171.731 47.73 171.115 47.686C170.983 47.686 170.829 47.664 170.653 47.62C170.169 47.664 169.905 47.686 169.861 47.686L169.399 47.818C167.463 48.874 165.967 50.568 164.911 52.9C163.899 55.188 163.613 57.564 164.053 60.028C164.537 63.02 165.615 65.286 167.287 66.826C169.091 68.498 171.489 69.114 174.481 68.674ZM236.149 73.096C236.105 72.304 236.039 71.578 235.951 70.918C235.907 70.214 235.863 69.708 235.819 69.4C235.819 69.048 235.797 68.762 235.753 68.542C235.753 68.278 235.753 67.992 235.753 67.684V63.922C235.753 63.218 235.775 61.986 235.819 60.226C235.907 58.422 235.929 56.904 235.885 55.672C235.885 54.44 235.775 53.274 235.555 52.174C235.291 50.634 234.829 49.534 234.169 48.874C233.509 48.17 232.497 47.818 231.133 47.818C228.097 47.862 225.061 49.71 222.025 53.362C222.157 54.682 222.223 57.234 222.223 61.018C222.223 63.79 222.289 67.662 222.421 72.634C222.465 73.514 222.157 74.284 221.497 74.944C220.881 75.604 220.111 75.956 219.187 76C218.307 76.044 217.537 75.758 216.877 75.142C216.217 74.482 215.865 73.69 215.821 72.766C215.689 67.794 215.623 63.878 215.623 61.018V57.718C215.623 57.498 215.601 57.036 215.557 56.332C215.557 55.628 215.535 55.122 215.491 54.814C215.491 54.462 215.447 54.022 215.359 53.494C215.315 52.922 215.249 52.438 215.161 52.042C215.117 51.602 215.029 51.184 214.897 50.788C214.545 49.556 214.061 48.698 213.445 48.214C212.785 47.686 211.795 47.488 210.475 47.62C209.023 47.752 207.769 48.148 206.713 48.808C205.701 49.468 204.667 50.524 203.611 51.976C203.391 52.24 203.149 52.482 202.885 52.702C203.061 61.502 203.061 68.212 202.885 72.832C202.841 73.756 202.489 74.526 201.829 75.142C201.169 75.758 200.377 76.044 199.453 76C198.529 75.956 197.759 75.604 197.143 74.944C196.527 74.284 196.241 73.492 196.285 72.568C196.373 67.684 196.417 64.56 196.417 63.196C196.417 61.788 196.351 58.598 196.219 53.626C196.131 48.61 196.087 45.398 196.087 43.99C196.087 43.33 196.395 42.67 197.011 42.01C197.671 41.35 198.441 41.02 199.321 41.02C200.201 41.02 200.993 41.306 201.697 41.878C202.401 42.406 202.731 43.418 202.687 44.914C204.667 42.582 207.087 41.284 209.947 41.02C212.983 40.756 215.513 41.438 217.537 43.066C218.593 43.902 219.539 45.068 220.375 46.564C223.103 43.132 226.689 41.284 231.133 41.02C234.389 40.976 237.007 41.988 238.987 44.056C240.527 45.86 241.561 48.17 242.089 50.986C242.309 52.306 242.441 53.758 242.485 55.342C242.529 56.882 242.507 58.642 242.419 60.622C242.375 62.558 242.353 63.658 242.353 63.922V67.552C242.353 67.772 242.353 67.992 242.353 68.212C242.397 68.432 242.419 68.696 242.419 69.004C242.463 69.268 242.507 69.73 242.551 70.39C242.595 71.05 242.661 71.776 242.749 72.568C242.793 73.492 242.507 74.306 241.891 75.01C241.319 75.67 240.571 76.022 239.647 76.066C238.767 76.154 237.975 75.912 237.271 75.34C236.611 74.724 236.237 73.976 236.149 73.096ZM268.631 75.538C262.823 76.946 258.181 75.78 254.705 72.04C251.933 69.18 250.217 65.506 249.557 61.018C249.073 57.498 249.491 54.154 250.811 50.986C252.395 46.938 254.903 43.946 258.335 42.01C259.039 41.614 259.919 41.328 260.975 41.152C261.019 41.152 261.327 41.13 261.899 41.086C262.119 41.042 262.295 40.998 262.427 40.954C263.087 40.822 263.747 40.888 264.407 41.152C264.583 41.152 265.001 41.174 265.661 41.218C266.321 41.218 266.761 41.24 266.981 41.284C267.201 41.284 267.575 41.328 268.103 41.416C268.675 41.46 269.137 41.526 269.489 41.614L270.743 42.076C271.271 42.252 271.777 42.472 272.261 42.736C272.745 43 273.273 43.308 273.845 43.66C276.705 45.596 278.685 48.324 279.785 51.844C280.885 55.32 281.171 58.136 280.643 60.292C280.247 62.668 279.543 64.89 278.531 66.958C277.519 68.982 276.111 70.786 274.307 72.37C272.547 73.954 270.655 75.01 268.631 75.538ZM266.585 68.674C268.477 68.41 270.083 67.442 271.403 65.77C272.767 64.054 273.647 62.25 274.043 60.358C274.483 58.466 274.329 56.398 273.581 54.154C272.877 51.866 271.733 50.216 270.149 49.204C269.665 48.852 269.269 48.61 268.961 48.478C268.653 48.302 268.279 48.17 267.839 48.082C267.443 47.95 267.113 47.884 266.849 47.884C266.629 47.884 266.123 47.862 265.331 47.818C264.539 47.774 263.835 47.73 263.219 47.686C263.087 47.686 262.933 47.664 262.757 47.62C262.273 47.664 262.009 47.686 261.965 47.686L261.503 47.818C259.567 48.874 258.071 50.568 257.015 52.9C256.003 55.188 255.717 57.564 256.157 60.028C256.641 63.02 257.719 65.286 259.391 66.826C261.195 68.498 263.593 69.114 266.585 68.674ZM316.24 72.832C316.196 73.756 315.844 74.526 315.184 75.142C314.524 75.758 313.732 76.044 312.808 76C311.928 76 311.18 75.67 310.564 75.01C309.948 74.35 309.64 73.58 309.64 72.7C309.64 72.656 309.772 70.588 310.036 66.496C310.3 62.008 310.344 58.598 310.168 56.266C309.772 50.766 307.748 47.884 304.096 47.62C302.16 47.488 300.554 47.796 299.278 48.544C298.046 49.248 296.836 50.502 295.648 52.306C295.56 52.438 295.384 52.746 295.12 53.23C295.428 62.734 295.582 69.246 295.582 72.766C295.582 73.69 295.252 74.482 294.592 75.142C293.976 75.758 293.206 76.066 292.282 76.066C291.358 76.066 290.566 75.758 289.906 75.142C289.29 74.482 288.982 73.69 288.982 72.766C288.982 70.742 288.806 63.9 288.454 52.24C288.19 43.484 288.146 36.532 288.322 31.384C288.366 30.504 288.718 29.756 289.378 29.14C290.038 28.48 290.808 28.172 291.688 28.216C292.612 28.26 293.382 28.612 293.998 29.272C294.658 29.932 294.966 30.724 294.922 31.648C294.878 32.836 294.856 37.434 294.856 45.442C297.672 42.186 300.972 40.712 304.756 41.02C312.06 41.636 316.064 46.542 316.768 55.738C316.9 58.29 316.922 60.512 316.834 62.404C316.79 64.296 316.68 66.386 316.504 68.674C316.328 70.962 316.24 72.348 316.24 72.832ZM340.973 76.33C337.717 76.11 334.879 75.45 332.459 74.35C330.039 73.25 328.191 71.864 326.915 70.192C325.639 68.52 324.715 66.98 324.143 65.572C323.571 64.164 323.219 62.778 323.087 61.414C322.955 60.006 323.021 58.202 323.285 56.002C323.593 54.154 324.231 52.328 325.199 50.524C326.211 48.72 327.531 47.114 329.159 45.706C330.831 44.254 332.833 43.154 335.165 42.406C337.497 41.614 339.983 41.372 342.623 41.68C345.175 41.988 347.353 42.692 349.157 43.792C350.961 44.848 352.501 46.212 353.777 47.884C354.877 49.292 355.537 50.348 355.757 51.052C356.021 51.756 356.241 52.416 356.417 53.032C356.637 53.648 356.813 54.176 356.945 54.616C357.077 55.056 357.187 55.518 357.275 56.002C357.407 56.442 357.495 56.97 357.539 57.586C357.583 58.422 357.429 59.192 357.077 59.896C356.725 60.6 356.197 61.15 355.493 61.546C354.921 61.766 354.305 61.876 353.645 61.876L342.359 62.074C334.439 62.118 330.479 62.206 330.479 62.338H330.281C330.853 64.582 332.041 66.342 333.845 67.618C335.693 68.894 338.201 69.642 341.369 69.862C343.085 69.95 344.515 69.862 345.659 69.598C346.935 69.246 347.859 68.938 348.431 68.674C349.003 68.366 349.707 67.97 350.543 67.486C351.379 67.178 352.215 67.222 353.051 67.618C353.887 68.014 354.459 68.63 354.767 69.466C355.075 70.302 355.031 71.116 354.635 71.908C354.283 72.7 353.711 73.316 352.919 73.756C352.215 74.152 351.489 74.504 350.741 74.812C349.993 75.076 348.893 75.406 347.441 75.802C345.989 76.198 343.833 76.374 340.973 76.33ZM330.413 55.87C332.965 55.738 339.587 55.606 350.279 55.474C349.883 54.154 349.245 52.9 348.365 51.712C346.605 49.688 344.427 48.522 341.831 48.214C339.103 47.862 336.705 48.456 334.637 49.996C332.569 51.492 331.161 53.45 330.413 55.87ZM382.142 74.944C380.558 75.56 378.754 75.912 376.73 76C374.75 76.088 372.902 75.868 371.186 75.34C369.47 74.768 367.952 73.91 366.632 72.766C364.344 70.874 362.87 68.52 362.21 65.704C361.55 62.888 361.528 60.358 362.144 58.114C362.76 55.87 363.684 53.692 364.916 51.58C366.192 49.424 367.556 47.62 369.008 46.168C370.504 44.672 372.22 43.418 374.156 42.406C376.092 41.394 378.116 40.91 380.228 40.954C382.34 40.954 384.562 41.526 386.894 42.67C387.246 42.846 387.62 43.11 388.016 43.462C388.456 43.814 388.83 44.122 389.138 44.386L389.996 45.244C390.26 45.508 390.392 45.662 390.392 45.706C391.096 46.322 391.47 47.114 391.514 48.082C392.086 50.722 392.46 53.494 392.636 56.398C392.812 59.302 392.856 62.03 392.768 64.582C392.724 67.134 392.768 69.84 392.9 72.7C392.944 73.58 392.658 74.35 392.042 75.01C391.426 75.67 390.656 76.022 389.732 76.066C388.808 76.11 388.016 75.824 387.356 75.208C386.696 74.592 386.344 73.844 386.3 72.964V71.974C384.98 73.338 383.594 74.328 382.142 74.944ZM379.172 69.004C379.832 68.828 380.36 68.652 380.756 68.476C381.152 68.3 381.636 68.036 382.208 67.684C382.824 67.332 383.462 66.892 384.122 66.364C384.782 65.836 385.376 65.176 385.904 64.384C385.992 64.296 386.102 64.208 386.234 64.12C386.234 58.18 385.86 53.406 385.112 49.798C384.98 49.622 384.826 49.468 384.65 49.336C384.518 49.16 384.408 49.028 384.32 48.94C384.276 48.852 384.188 48.786 384.056 48.742C383.968 48.654 383.858 48.566 383.726 48.478C381.614 47.334 379.392 47.312 377.06 48.412C374.728 49.468 372.682 51.47 370.922 54.418C369.162 57.41 368.282 60.028 368.282 62.272C368.326 64.472 369.184 66.298 370.856 67.75C371.868 68.586 373.122 69.114 374.618 69.334C376.114 69.554 377.632 69.444 379.172 69.004ZM407.447 72.832C407.403 73.756 407.051 74.526 406.391 75.142C405.731 75.758 404.939 76.044 404.015 76C403.091 75.956 402.321 75.604 401.705 74.944C401.089 74.284 400.803 73.492 400.847 72.568C401.023 66.716 401.111 62.272 401.111 59.236C401.111 56.2 401.067 51.668 400.979 45.64C400.891 39.612 400.847 35.08 400.847 32.044C400.847 31.12 401.155 30.35 401.771 29.734C402.431 29.074 403.223 28.744 404.147 28.744C405.071 28.744 405.841 29.074 406.457 29.734C407.117 30.35 407.447 31.12 407.447 32.044C407.447 35.08 407.491 39.392 407.579 44.98C407.667 50.568 407.689 55.65 407.645 60.226C407.645 64.758 407.579 68.96 407.447 72.832ZM426.828 75.802C426.564 75.714 426.014 75.582 425.178 75.406C424.386 75.23 423.682 75.032 423.066 74.812C422.494 74.592 421.812 74.284 421.02 73.888C420.272 73.448 419.59 72.876 418.974 72.172C418.358 71.424 417.83 70.544 417.39 69.532C416.906 68.344 416.598 66.012 416.466 62.536C416.334 59.852 416.312 56.398 416.4 52.174C416.4 51.382 416.422 50.062 416.466 48.214L415.938 48.28C415.014 48.368 414.2 48.126 413.496 47.554C412.792 46.982 412.374 46.256 412.242 45.376C412.154 44.452 412.396 43.638 412.968 42.934C413.54 42.23 414.266 41.812 415.146 41.68L416.664 41.548C416.708 39.216 416.774 36.862 416.862 34.486C416.906 33.562 417.258 32.792 417.918 32.176C418.578 31.56 419.37 31.274 420.294 31.318C421.218 31.362 421.988 31.714 422.604 32.374C423.22 33.034 423.506 33.826 423.462 34.75L423.264 41.02L425.442 40.888C426.366 40.844 427.158 41.108 427.818 41.68C428.522 42.252 428.896 43 428.94 43.924C429.028 44.848 428.786 45.662 428.214 46.366C427.642 47.026 426.894 47.4 425.97 47.488L423.066 47.62C423.022 49.732 423 51.272 423 52.24C422.912 56.376 422.934 59.742 423.066 62.338C423.154 64.978 423.286 66.496 423.462 66.892C423.638 67.288 423.77 67.574 423.858 67.75C423.946 67.882 424.1 68.036 424.32 68.212C424.584 68.344 424.848 68.432 425.112 68.476C425.376 68.52 425.86 68.652 426.564 68.872C427.312 69.048 428.104 69.29 428.94 69.598C429.776 69.862 430.392 70.412 430.788 71.248C431.228 72.04 431.294 72.876 430.986 73.756C430.722 74.592 430.172 75.23 429.336 75.67C428.544 76.066 427.708 76.11 426.828 75.802ZM464.16 72.832C464.116 73.756 463.764 74.526 463.104 75.142C462.444 75.758 461.652 76.044 460.728 76C459.848 76 459.1 75.67 458.484 75.01C457.868 74.35 457.56 73.58 457.56 72.7C457.56 72.656 457.692 70.588 457.956 66.496C458.22 62.008 458.264 58.598 458.088 56.266C457.692 50.766 455.668 47.884 452.016 47.62C450.08 47.488 448.474 47.796 447.198 48.544C445.966 49.248 444.756 50.502 443.568 52.306C443.48 52.438 443.304 52.746 443.04 53.23C443.348 62.734 443.502 69.246 443.502 72.766C443.502 73.69 443.172 74.482 442.512 75.142C441.896 75.758 441.126 76.066 440.202 76.066C439.278 76.066 438.486 75.758 437.826 75.142C437.21 74.482 436.902 73.69 436.902 72.766C436.902 70.742 436.726 63.9 436.374 52.24C436.11 43.484 436.066 36.532 436.242 31.384C436.286 30.504 436.638 29.756 437.298 29.14C437.958 28.48 438.728 28.172 439.608 28.216C440.532 28.26 441.302 28.612 441.918 29.272C442.578 29.932 442.886 30.724 442.842 31.648C442.798 32.836 442.776 37.434 442.776 45.442C445.592 42.186 448.892 40.712 452.676 41.02C459.98 41.636 463.984 46.542 464.688 55.738C464.82 58.29 464.842 60.512 464.754 62.404C464.71 64.296 464.6 66.386 464.424 68.674C464.248 70.962 464.16 72.348 464.16 72.832Z" fill="#F2F3F5"/>
<path d="M78.3056 59.1309C77.7274 59.1309 77.17 58.9215 76.7356 58.541C75.095 57.1064 73.5133 55.7583 72.1178 54.5692L72.1107 54.563C68.0193 51.0763 64.4862 48.0653 62.0279 45.0992C59.2799 41.7834 58 38.6394 58 35.2049C58 31.8679 59.1442 28.7893 61.2217 26.5359C63.324 24.2558 66.2086 23 69.3451 23C71.6893 23 73.8362 23.7411 75.7259 25.2026C76.6796 25.9404 77.544 26.8432 78.3056 27.8964C79.0675 26.8432 79.9316 25.9404 80.8856 25.2026C82.7753 23.7411 84.9222 23 87.2664 23C90.4026 23 93.2875 24.2558 95.3898 26.5359C97.4673 28.7893 98.6112 31.8679 98.6112 35.2049C98.6112 38.6394 97.3315 41.7834 94.5836 45.0989C92.1253 48.0653 88.5925 51.076 84.5017 54.5623C83.1038 55.7534 81.5195 57.1036 79.8752 58.5416C79.4411 58.9215 78.8834 59.1309 78.3056 59.1309ZM69.3451 25.3789C66.8809 25.3789 64.6172 26.3624 62.9704 28.1483C61.2992 29.9611 60.3786 32.4671 60.3786 35.2049C60.3786 38.0935 61.4522 40.6769 63.8594 43.5813C66.1859 46.3888 69.6465 49.3378 73.6534 52.7526L73.6608 52.7588C75.0616 53.9526 76.6495 55.306 78.3022 56.751C79.9648 55.3032 81.5552 53.9476 82.9587 52.752C86.9653 49.3372 90.4256 46.3888 92.7521 43.5813C95.159 40.6769 96.2325 38.0935 96.2325 35.2049C96.2325 32.4671 95.312 29.9611 93.6407 28.1483C91.9943 26.3624 89.7303 25.3789 87.2664 25.3789C85.4613 25.3789 83.804 25.9528 82.3406 27.0843C81.0365 28.0931 80.1281 29.3684 79.5954 30.2608C79.3216 30.7196 78.8394 30.9935 78.3056 30.9935C77.7717 30.9935 77.2896 30.7196 77.0157 30.2608C76.4834 29.3684 75.575 28.0931 74.2706 27.0843C72.8072 25.9528 71.1499 25.3789 69.3451 25.3789Z" fill="#F2F3F5"/>
<path d="M78.3056 56.8691C78.8838 56.8691 79.4412 57.0785 79.8756 57.459C81.5162 58.8936 83.0979 60.2417 84.4934 61.4308L84.5005 61.437C88.592 64.9237 92.125 67.9347 94.5833 70.9008C97.3313 74.2166 98.6112 77.3606 98.6112 80.7951C98.6112 84.1321 97.467 87.2107 95.3895 89.4641C93.2872 91.7442 90.4026 93 87.2662 93C84.9219 93 82.775 92.2589 80.8853 90.7974C79.9317 90.0596 79.0672 89.1568 78.3056 88.1036C77.5437 89.1568 76.6796 90.0596 75.7256 90.7974C73.8359 92.2589 71.689 93 69.3448 93C66.2086 93 63.3237 91.7442 61.2214 89.4641C59.144 87.2107 58 84.1321 58 80.7951C58 77.3606 59.2797 74.2166 62.0276 70.9011C64.4859 67.9347 68.0187 64.924 72.1095 61.4377C73.5075 60.2466 75.0917 58.8964 76.736 57.4584C77.1701 57.0785 77.7278 56.8691 78.3056 56.8691ZM87.2662 90.6211C89.7303 90.6211 91.994 89.6376 93.6408 87.8517C95.312 86.0389 96.2326 83.5329 96.2326 80.7951C96.2326 77.9065 95.159 75.3231 92.7518 72.4187C90.4253 69.6112 86.9647 66.6622 82.9578 63.2474L82.9504 63.2412C81.5496 62.0474 79.9617 60.694 78.309 59.249C76.6464 60.6968 75.056 62.0524 73.6525 63.248C69.6459 66.6628 66.1857 69.6112 63.8591 72.4187C61.4523 75.3231 60.3787 77.9065 60.3787 80.7951C60.3787 83.5329 61.2992 86.0389 62.9705 87.8517C64.6169 89.6376 66.8809 90.6211 69.3448 90.6211C71.1499 90.6211 72.8072 90.0472 74.2706 88.9157C75.5747 87.9069 76.4831 86.6316 77.0158 85.7392C77.2897 85.2804 77.7718 85.0065 78.3056 85.0065C78.8395 85.0065 79.3216 85.2804 79.5955 85.7392C80.1278 86.6316 81.0362 87.9069 82.3406 88.9157C83.804 90.0472 85.4613 90.6211 87.2662 90.6211Z" fill="#F2F3F5"/>
<path d="M78.3 59.4001C78.7983 59.4001 79.2787 59.5806 79.6531 59.9085C81.067 61.1448 82.4302 62.3067 83.6329 63.3315L83.639 63.3369C87.1651 66.3417 90.2101 68.9367 92.3287 71.493C94.697 74.3507 95.8 77.0603 95.8 80.0203C95.8 82.8962 94.8139 85.5494 93.0235 87.4915C91.2117 89.4566 88.7257 90.5388 86.0225 90.5388C84.0022 90.5388 82.1519 89.9001 80.5233 88.6405C79.7014 88.0047 78.9564 87.2266 78.3 86.319C77.6434 87.2266 76.8987 88.0047 76.0765 88.6405C74.4479 89.9001 72.5976 90.5388 70.5773 90.5388C67.8744 90.5388 65.3881 89.4566 63.5763 87.4915C61.7859 85.5494 60.8 82.8962 60.8 80.0203C60.8 77.0603 61.9029 74.3507 64.2712 71.4933C66.3898 68.9367 69.4344 66.342 72.96 63.3374C74.1648 62.3109 75.5302 61.1472 76.9473 59.9079C77.3214 59.5806 77.802 59.4001 78.3 59.4001ZM86.0225 88.4886C88.1462 88.4886 90.0971 87.641 91.5164 86.1019C92.9567 84.5395 93.7501 82.3798 93.7501 80.0203C93.7501 77.5308 92.8248 75.3043 90.7503 72.8012C88.7451 70.3816 85.7627 67.84 82.3095 64.8971L82.3031 64.8918C81.0958 63.8629 79.7273 62.6965 78.303 61.4511C76.8701 62.6989 75.4995 63.8672 74.2898 64.8976C70.8369 67.8406 67.8547 70.3816 65.8496 72.8012C63.7753 75.3043 62.85 77.5308 62.85 80.0203C62.85 82.3798 63.6434 84.5395 65.0837 86.1019C66.5027 87.641 68.4539 88.4886 70.5773 88.4886C72.133 88.4886 73.5614 87.994 74.8225 87.0188C75.9465 86.1494 76.7294 85.0503 77.1884 84.2813C77.4245 83.8858 77.84 83.6497 78.3 83.6497C78.7601 83.6497 79.1756 83.8858 79.4117 84.2813C79.8704 85.0503 80.6534 86.1494 81.7776 87.0188C83.0387 87.994 84.4671 88.4886 86.0225 88.4886Z" fill="#F2F3F5"/>
<path d="M78.3 55.5387C77.8018 55.5387 77.3214 55.3582 76.947 55.0302C75.5331 53.7939 74.1699 52.6321 72.9672 51.6072L72.9611 51.6019C69.435 48.597 66.39 46.002 64.2714 43.4457C61.9031 40.588 60.8 37.8785 60.8 34.9184C60.8 32.0425 61.7862 29.3893 63.5766 27.4472C65.3884 25.4822 67.8744 24.3999 70.5776 24.3999C72.5979 24.3999 74.4482 25.0386 76.0768 26.2982C76.8987 26.934 77.6437 27.7121 78.3 28.6198C78.9567 27.7121 79.7014 26.934 80.5236 26.2982C82.1522 25.0386 84.0024 24.3999 86.0228 24.3999C88.7257 24.3999 91.212 25.4822 93.0238 27.4472C94.8142 29.3893 95.8 32.0425 95.8 34.9184C95.8 37.8785 94.6972 40.588 92.3289 43.4455C90.2103 46.002 87.1657 48.5967 83.6401 51.6013C82.4353 52.6278 81.0699 53.7915 79.6528 55.0308C79.2787 55.3582 78.7981 55.5387 78.3 55.5387ZM70.5776 26.4501C68.4539 26.4501 66.503 27.2977 65.0837 28.8369C63.6434 30.3992 62.85 32.559 62.85 34.9184C62.85 37.4079 63.7753 39.6344 65.8498 42.1376C67.8549 44.5571 70.8374 47.0987 74.2906 50.0416L74.297 50.047C75.5043 51.0758 76.8728 52.2422 78.2971 53.4876C79.73 52.2398 81.1006 51.0715 82.3103 50.0411C85.7632 47.0982 88.7454 44.5571 90.7505 42.1376C92.8248 39.6344 93.7501 37.4079 93.7501 34.9184C93.7501 32.559 92.9567 30.3992 91.5164 28.8369C90.0974 27.2977 88.1462 26.4501 86.0228 26.4501C84.4671 26.4501 83.0387 26.9447 81.7776 27.9199C80.6536 28.7893 79.8707 29.8884 79.4117 30.6575C79.1756 31.0529 78.7601 31.289 78.3 31.289C77.84 31.289 77.4245 31.0529 77.1884 30.6575C76.7297 29.8884 75.9467 28.7893 74.8225 27.9199C73.5614 26.9447 72.133 26.4501 70.5776 26.4501Z" fill="#F2F3F5"/>
</svg>
