<svg width="411" height="70" viewBox="0 0 411 70" fill="none" xmlns="http://www.w3.org/2000/svg">
<path d="M68.89 62.966C68.89 63.89 68.56 64.66 67.9 65.276C67.24 65.892 66.448 66.2 65.524 66.2C64.6 66.2 63.83 65.87 63.214 65.21C62.598 64.55 62.29 63.758 62.29 62.834C62.466 54.166 62.554 40.328 62.554 21.32C62.554 20.396 62.862 19.626 63.478 19.01C64.138 18.35 64.93 18.02 65.854 18.02C66.514 18.02 67.108 18.328 67.636 18.944C68.208 19.516 68.626 20.242 68.89 21.122L69.814 20.528C72.454 18.944 75.072 18.086 77.668 17.954C80.264 17.822 82.596 18.394 84.664 19.67C86.6 20.77 88.228 22.31 89.548 24.29C90.912 26.27 91.902 28.426 92.518 30.758C93.002 32.43 93.266 34.212 93.31 36.104C93.354 37.996 93.112 39.756 92.584 41.384C92.056 43.012 91.286 44.618 90.274 46.202C89.262 47.786 87.832 49.172 85.984 50.36C84.18 51.548 82.09 52.362 79.714 52.802C75.622 53.55 72.08 52.846 69.088 50.69C69.044 54.782 68.978 58.874 68.89 62.966ZM78.526 46.334C81.87 45.718 84.202 44.134 85.522 41.582C86.886 38.986 87.106 35.95 86.182 32.474C85.258 29.042 83.652 26.688 81.364 25.412C79.032 24.048 76.326 24.312 73.246 26.204C71.838 27.04 71.024 27.59 70.804 27.854C70.672 27.986 70.562 28.118 70.474 28.25C70.386 28.338 70.232 28.58 70.012 28.976L69.154 30.164V40.988C69.374 41.208 69.55 41.45 69.682 41.714C70.914 43.65 72.212 44.992 73.576 45.74C74.94 46.488 76.59 46.686 78.526 46.334ZM118.527 52.538C112.719 53.946 108.077 52.78 104.601 49.04C101.829 46.18 100.113 42.506 99.4532 38.018C98.9692 34.498 99.3872 31.154 100.707 27.986C102.291 23.938 104.799 20.946 108.231 19.01C108.935 18.614 109.815 18.328 110.871 18.152C110.915 18.152 111.223 18.13 111.795 18.086C112.015 18.042 112.191 17.998 112.323 17.954C112.983 17.822 113.643 17.888 114.303 18.152C114.479 18.152 114.897 18.174 115.557 18.218C116.217 18.218 116.657 18.24 116.877 18.284C117.097 18.284 117.471 18.328 117.999 18.416C118.571 18.46 119.033 18.526 119.385 18.614L120.639 19.076C121.167 19.252 121.673 19.472 122.157 19.736C122.641 20 123.169 20.308 123.741 20.66C126.601 22.596 128.581 25.324 129.681 28.844C130.781 32.32 131.067 35.136 130.539 37.292C130.143 39.668 129.439 41.89 128.427 43.958C127.415 45.982 126.007 47.786 124.203 49.37C122.443 50.954 120.551 52.01 118.527 52.538ZM116.481 45.674C118.373 45.41 119.979 44.442 121.299 42.77C122.663 41.054 123.543 39.25 123.939 37.358C124.379 35.466 124.225 33.398 123.477 31.154C122.773 28.866 121.629 27.216 120.045 26.204C119.561 25.852 119.165 25.61 118.857 25.478C118.549 25.302 118.175 25.17 117.735 25.082C117.339 24.95 117.009 24.884 116.745 24.884C116.525 24.884 116.019 24.862 115.227 24.818C114.435 24.774 113.731 24.73 113.115 24.686C112.983 24.686 112.829 24.664 112.653 24.62C112.169 24.664 111.905 24.686 111.861 24.686L111.399 24.818C109.463 25.874 107.967 27.568 106.911 29.9C105.899 32.188 105.613 34.564 106.053 37.028C106.537 40.02 107.615 42.286 109.287 43.826C111.091 45.498 113.489 46.114 116.481 45.674ZM178.149 50.096C178.105 49.304 178.039 48.578 177.951 47.918C177.907 47.214 177.863 46.708 177.819 46.4C177.819 46.048 177.797 45.762 177.753 45.542C177.753 45.278 177.753 44.992 177.753 44.684V40.922C177.753 40.218 177.775 38.986 177.819 37.226C177.907 35.422 177.929 33.904 177.885 32.672C177.885 31.44 177.775 30.274 177.555 29.174C177.291 27.634 176.829 26.534 176.169 25.874C175.509 25.17 174.497 24.818 173.133 24.818C170.097 24.862 167.061 26.71 164.025 30.362C164.157 31.682 164.223 34.234 164.223 38.018C164.223 40.79 164.289 44.662 164.421 49.634C164.465 50.514 164.157 51.284 163.497 51.944C162.881 52.604 162.111 52.956 161.187 53C160.307 53.044 159.537 52.758 158.877 52.142C158.217 51.482 157.865 50.69 157.821 49.766C157.689 44.794 157.623 40.878 157.623 38.018V34.718C157.623 34.498 157.601 34.036 157.557 33.332C157.557 32.628 157.535 32.122 157.491 31.814C157.491 31.462 157.447 31.022 157.359 30.494C157.315 29.922 157.249 29.438 157.161 29.042C157.117 28.602 157.029 28.184 156.897 27.788C156.545 26.556 156.061 25.698 155.445 25.214C154.785 24.686 153.795 24.488 152.475 24.62C151.023 24.752 149.769 25.148 148.713 25.808C147.701 26.468 146.667 27.524 145.611 28.976C145.391 29.24 145.149 29.482 144.885 29.702C145.061 38.502 145.061 45.212 144.885 49.832C144.841 50.756 144.489 51.526 143.829 52.142C143.169 52.758 142.377 53.044 141.453 53C140.529 52.956 139.759 52.604 139.143 51.944C138.527 51.284 138.241 50.492 138.285 49.568C138.373 44.684 138.417 41.56 138.417 40.196C138.417 38.788 138.351 35.598 138.219 30.626C138.131 25.61 138.087 22.398 138.087 20.99C138.087 20.33 138.395 19.67 139.011 19.01C139.671 18.35 140.441 18.02 141.321 18.02C142.201 18.02 142.993 18.306 143.697 18.878C144.401 19.406 144.731 20.418 144.687 21.914C146.667 19.582 149.087 18.284 151.947 18.02C154.983 17.756 157.513 18.438 159.537 20.066C160.593 20.902 161.539 22.068 162.375 23.564C165.103 20.132 168.689 18.284 173.133 18.02C176.389 17.976 179.007 18.988 180.987 21.056C182.527 22.86 183.561 25.17 184.089 27.986C184.309 29.306 184.441 30.758 184.485 32.342C184.529 33.882 184.507 35.642 184.419 37.622C184.375 39.558 184.353 40.658 184.353 40.922V44.552C184.353 44.772 184.353 44.992 184.353 45.212C184.397 45.432 184.419 45.696 184.419 46.004C184.463 46.268 184.507 46.73 184.551 47.39C184.595 48.05 184.661 48.776 184.749 49.568C184.793 50.492 184.507 51.306 183.891 52.01C183.319 52.67 182.571 53.022 181.647 53.066C180.767 53.154 179.975 52.912 179.271 52.34C178.611 51.724 178.237 50.976 178.149 50.096ZM210.631 52.538C204.823 53.946 200.181 52.78 196.705 49.04C193.933 46.18 192.217 42.506 191.557 38.018C191.073 34.498 191.491 31.154 192.811 27.986C194.395 23.938 196.903 20.946 200.335 19.01C201.039 18.614 201.919 18.328 202.975 18.152C203.019 18.152 203.327 18.13 203.899 18.086C204.119 18.042 204.295 17.998 204.427 17.954C205.087 17.822 205.747 17.888 206.407 18.152C206.583 18.152 207.001 18.174 207.661 18.218C208.321 18.218 208.761 18.24 208.981 18.284C209.201 18.284 209.575 18.328 210.103 18.416C210.675 18.46 211.137 18.526 211.489 18.614L212.743 19.076C213.271 19.252 213.777 19.472 214.261 19.736C214.745 20 215.273 20.308 215.845 20.66C218.705 22.596 220.685 25.324 221.785 28.844C222.885 32.32 223.171 35.136 222.643 37.292C222.247 39.668 221.543 41.89 220.531 43.958C219.519 45.982 218.111 47.786 216.307 49.37C214.547 50.954 212.655 52.01 210.631 52.538ZM208.585 45.674C210.477 45.41 212.083 44.442 213.403 42.77C214.767 41.054 215.647 39.25 216.043 37.358C216.483 35.466 216.329 33.398 215.581 31.154C214.877 28.866 213.733 27.216 212.149 26.204C211.665 25.852 211.269 25.61 210.961 25.478C210.653 25.302 210.279 25.17 209.839 25.082C209.443 24.95 209.113 24.884 208.849 24.884C208.629 24.884 208.123 24.862 207.331 24.818C206.539 24.774 205.835 24.73 205.219 24.686C205.087 24.686 204.933 24.664 204.757 24.62C204.273 24.664 204.009 24.686 203.965 24.686L203.503 24.818C201.567 25.874 200.071 27.568 199.015 29.9C198.003 32.188 197.717 34.564 198.157 37.028C198.641 40.02 199.719 42.286 201.391 43.826C203.195 45.498 205.593 46.114 208.585 45.674ZM258.24 49.832C258.196 50.756 257.844 51.526 257.184 52.142C256.524 52.758 255.732 53.044 254.808 53C253.928 53 253.18 52.67 252.564 52.01C251.948 51.35 251.64 50.58 251.64 49.7C251.64 49.656 251.772 47.588 252.036 43.496C252.3 39.008 252.344 35.598 252.168 33.266C251.772 27.766 249.748 24.884 246.096 24.62C244.16 24.488 242.554 24.796 241.278 25.544C240.046 26.248 238.836 27.502 237.648 29.306C237.56 29.438 237.384 29.746 237.12 30.23C237.428 39.734 237.582 46.246 237.582 49.766C237.582 50.69 237.252 51.482 236.592 52.142C235.976 52.758 235.206 53.066 234.282 53.066C233.358 53.066 232.566 52.758 231.906 52.142C231.29 51.482 230.982 50.69 230.982 49.766C230.982 47.742 230.806 40.9 230.454 29.24C230.19 20.484 230.146 13.532 230.322 8.384C230.366 7.504 230.718 6.756 231.378 6.14C232.038 5.48 232.808 5.172 233.688 5.216C234.612 5.26 235.382 5.612 235.998 6.272C236.658 6.932 236.966 7.724 236.922 8.648C236.878 9.836 236.856 14.434 236.856 22.442C239.672 19.186 242.972 17.712 246.756 18.02C254.06 18.636 258.064 23.542 258.768 32.738C258.9 35.29 258.922 37.512 258.834 39.404C258.79 41.296 258.68 43.386 258.504 45.674C258.328 47.962 258.24 49.348 258.24 49.832ZM282.973 53.33C279.717 53.11 276.879 52.45 274.459 51.35C272.039 50.25 270.191 48.864 268.915 47.192C267.639 45.52 266.715 43.98 266.143 42.572C265.571 41.164 265.219 39.778 265.087 38.414C264.955 37.006 265.021 35.202 265.285 33.002C265.593 31.154 266.231 29.328 267.199 27.524C268.211 25.72 269.531 24.114 271.159 22.706C272.831 21.254 274.833 20.154 277.165 19.406C279.497 18.614 281.983 18.372 284.623 18.68C287.175 18.988 289.353 19.692 291.157 20.792C292.961 21.848 294.501 23.212 295.777 24.884C296.877 26.292 297.537 27.348 297.757 28.052C298.021 28.756 298.241 29.416 298.417 30.032C298.637 30.648 298.813 31.176 298.945 31.616C299.077 32.056 299.187 32.518 299.275 33.002C299.407 33.442 299.495 33.97 299.539 34.586C299.583 35.422 299.429 36.192 299.077 36.896C298.725 37.6 298.197 38.15 297.493 38.546C296.921 38.766 296.305 38.876 295.645 38.876L284.359 39.074C276.439 39.118 272.479 39.206 272.479 39.338H272.281C272.853 41.582 274.041 43.342 275.845 44.618C277.693 45.894 280.201 46.642 283.369 46.862C285.085 46.95 286.515 46.862 287.659 46.598C288.935 46.246 289.859 45.938 290.431 45.674C291.003 45.366 291.707 44.97 292.543 44.486C293.379 44.178 294.215 44.222 295.051 44.618C295.887 45.014 296.459 45.63 296.767 46.466C297.075 47.302 297.031 48.116 296.635 48.908C296.283 49.7 295.711 50.316 294.919 50.756C294.215 51.152 293.489 51.504 292.741 51.812C291.993 52.076 290.893 52.406 289.441 52.802C287.989 53.198 285.833 53.374 282.973 53.33ZM272.413 32.87C274.965 32.738 281.587 32.606 292.279 32.474C291.883 31.154 291.245 29.9 290.365 28.712C288.605 26.688 286.427 25.522 283.831 25.214C281.103 24.862 278.705 25.456 276.637 26.996C274.569 28.492 273.161 30.45 272.413 32.87ZM324.142 51.944C322.558 52.56 320.754 52.912 318.73 53C316.75 53.088 314.902 52.868 313.186 52.34C311.47 51.768 309.952 50.91 308.632 49.766C306.344 47.874 304.87 45.52 304.21 42.704C303.55 39.888 303.528 37.358 304.144 35.114C304.76 32.87 305.684 30.692 306.916 28.58C308.192 26.424 309.556 24.62 311.008 23.168C312.504 21.672 314.22 20.418 316.156 19.406C318.092 18.394 320.116 17.91 322.228 17.954C324.34 17.954 326.562 18.526 328.894 19.67C329.246 19.846 329.62 20.11 330.016 20.462C330.456 20.814 330.83 21.122 331.138 21.386L331.996 22.244C332.26 22.508 332.392 22.662 332.392 22.706C333.096 23.322 333.47 24.114 333.514 25.082C334.086 27.722 334.46 30.494 334.636 33.398C334.812 36.302 334.856 39.03 334.768 41.582C334.724 44.134 334.768 46.84 334.9 49.7C334.944 50.58 334.658 51.35 334.042 52.01C333.426 52.67 332.656 53.022 331.732 53.066C330.808 53.11 330.016 52.824 329.356 52.208C328.696 51.592 328.344 50.844 328.3 49.964V48.974C326.98 50.338 325.594 51.328 324.142 51.944ZM321.172 46.004C321.832 45.828 322.36 45.652 322.756 45.476C323.152 45.3 323.636 45.036 324.208 44.684C324.824 44.332 325.462 43.892 326.122 43.364C326.782 42.836 327.376 42.176 327.904 41.384C327.992 41.296 328.102 41.208 328.234 41.12C328.234 35.18 327.86 30.406 327.112 26.798C326.98 26.622 326.826 26.468 326.65 26.336C326.518 26.16 326.408 26.028 326.32 25.94C326.276 25.852 326.188 25.786 326.056 25.742C325.968 25.654 325.858 25.566 325.726 25.478C323.614 24.334 321.392 24.312 319.06 25.412C316.728 26.468 314.682 28.47 312.922 31.418C311.162 34.41 310.282 37.028 310.282 39.272C310.326 41.472 311.184 43.298 312.856 44.75C313.868 45.586 315.122 46.114 316.618 46.334C318.114 46.554 319.632 46.444 321.172 46.004ZM349.447 49.832C349.403 50.756 349.051 51.526 348.391 52.142C347.731 52.758 346.939 53.044 346.015 53C345.091 52.956 344.321 52.604 343.705 51.944C343.089 51.284 342.803 50.492 342.847 49.568C343.023 43.716 343.111 39.272 343.111 36.236C343.111 33.2 343.067 28.668 342.979 22.64C342.891 16.612 342.847 12.08 342.847 9.044C342.847 8.12 343.155 7.35 343.771 6.734C344.431 6.074 345.223 5.744 346.147 5.744C347.071 5.744 347.841 6.074 348.457 6.734C349.117 7.35 349.447 8.12 349.447 9.044C349.447 12.08 349.491 16.392 349.579 21.98C349.667 27.568 349.689 32.65 349.645 37.226C349.645 41.758 349.579 45.96 349.447 49.832ZM368.828 52.802C368.564 52.714 368.014 52.582 367.178 52.406C366.386 52.23 365.682 52.032 365.066 51.812C364.494 51.592 363.812 51.284 363.02 50.888C362.272 50.448 361.59 49.876 360.974 49.172C360.358 48.424 359.83 47.544 359.39 46.532C358.906 45.344 358.598 43.012 358.466 39.536C358.334 36.852 358.312 33.398 358.4 29.174C358.4 28.382 358.422 27.062 358.466 25.214L357.938 25.28C357.014 25.368 356.2 25.126 355.496 24.554C354.792 23.982 354.374 23.256 354.242 22.376C354.154 21.452 354.396 20.638 354.968 19.934C355.54 19.23 356.266 18.812 357.146 18.68L358.664 18.548C358.708 16.216 358.774 13.862 358.862 11.486C358.906 10.562 359.258 9.792 359.918 9.176C360.578 8.56 361.37 8.274 362.294 8.318C363.218 8.362 363.988 8.714 364.604 9.374C365.22 10.034 365.506 10.826 365.462 11.75L365.264 18.02L367.442 17.888C368.366 17.844 369.158 18.108 369.818 18.68C370.522 19.252 370.896 20 370.94 20.924C371.028 21.848 370.786 22.662 370.214 23.366C369.642 24.026 368.894 24.4 367.97 24.488L365.066 24.62C365.022 26.732 365 28.272 365 29.24C364.912 33.376 364.934 36.742 365.066 39.338C365.154 41.978 365.286 43.496 365.462 43.892C365.638 44.288 365.77 44.574 365.858 44.75C365.946 44.882 366.1 45.036 366.32 45.212C366.584 45.344 366.848 45.432 367.112 45.476C367.376 45.52 367.86 45.652 368.564 45.872C369.312 46.048 370.104 46.29 370.94 46.598C371.776 46.862 372.392 47.412 372.788 48.248C373.228 49.04 373.294 49.876 372.986 50.756C372.722 51.592 372.172 52.23 371.336 52.67C370.544 53.066 369.708 53.11 368.828 52.802ZM406.16 49.832C406.116 50.756 405.764 51.526 405.104 52.142C404.444 52.758 403.652 53.044 402.728 53C401.848 53 401.1 52.67 400.484 52.01C399.868 51.35 399.56 50.58 399.56 49.7C399.56 49.656 399.692 47.588 399.956 43.496C400.22 39.008 400.264 35.598 400.088 33.266C399.692 27.766 397.668 24.884 394.016 24.62C392.08 24.488 390.474 24.796 389.198 25.544C387.966 26.248 386.756 27.502 385.568 29.306C385.48 29.438 385.304 29.746 385.04 30.23C385.348 39.734 385.502 46.246 385.502 49.766C385.502 50.69 385.172 51.482 384.512 52.142C383.896 52.758 383.126 53.066 382.202 53.066C381.278 53.066 380.486 52.758 379.826 52.142C379.21 51.482 378.902 50.69 378.902 49.766C378.902 47.742 378.726 40.9 378.374 29.24C378.11 20.484 378.066 13.532 378.242 8.384C378.286 7.504 378.638 6.756 379.298 6.14C379.958 5.48 380.728 5.172 381.608 5.216C382.532 5.26 383.302 5.612 383.918 6.272C384.578 6.932 384.886 7.724 384.842 8.648C384.798 9.836 384.776 14.434 384.776 22.442C387.592 19.186 390.892 17.712 394.676 18.02C401.98 18.636 405.984 23.542 406.688 32.738C406.82 35.29 406.842 37.512 406.754 39.404C406.71 41.296 406.6 43.386 406.424 45.674C406.248 47.962 406.16 49.348 406.16 49.832Z" fill="#F2F3F5"/>
<path d="M20.3056 36.1309C19.7274 36.1309 19.17 35.9215 18.7356 35.541C17.095 34.1064 15.5133 32.7583 14.1178 31.5692L14.1107 31.563C10.0193 28.0763 6.48616 25.0653 4.0279 22.0992C1.27994 18.7834 0 15.6394 0 12.2049C0 8.86789 1.14423 5.78934 3.2217 3.53588C5.32396 1.25578 8.20856 0 11.3451 0C13.6893 0 15.8362 0.741134 17.7259 2.20264C18.6796 2.94037 19.544 3.84324 20.3056 4.89638C21.0675 3.84324 21.9316 2.94037 22.8856 2.20264C24.7753 0.741134 26.9222 0 29.2664 0C32.4026 0 35.2875 1.25578 37.3898 3.53588C39.4673 5.78934 40.6112 8.86789 40.6112 12.2049C40.6112 15.6394 39.3315 18.7834 36.5836 22.0989C34.1253 25.0653 30.5925 28.076 26.5017 31.5623C25.1038 32.7534 23.5195 34.1036 21.8752 35.5416C21.4411 35.9215 20.8834 36.1309 20.3056 36.1309V36.1309ZM11.3451 2.37894C8.88091 2.37894 6.61723 3.36237 4.97043 5.14828C3.29916 6.96115 2.37863 9.46712 2.37863 12.2049C2.37863 15.0935 3.45222 17.6769 5.85936 20.5813C8.18594 23.3888 11.6465 26.3378 15.6534 29.7526L15.6608 29.7588C17.0616 30.9526 18.6495 32.306 20.3022 33.751C21.9648 32.3032 23.5552 30.9476 24.9587 29.752C28.9653 26.3372 32.4256 23.3888 34.7521 20.5813C37.159 17.6769 38.2325 15.0935 38.2325 12.2049C38.2325 9.46712 37.312 6.96115 35.6407 5.14828C33.9943 3.36237 31.7303 2.37894 29.2664 2.37894C27.4613 2.37894 25.804 2.95276 24.3406 4.08429C23.0365 5.09313 22.1281 6.36842 21.5954 7.26076C21.3216 7.71963 20.8394 7.99353 20.3056 7.99353C19.7717 7.99353 19.2896 7.71963 19.0157 7.26076C18.4834 6.36842 17.575 5.09313 16.2706 4.08429C14.8072 2.95276 13.1499 2.37894 11.3451 2.37894V2.37894Z" fill="#F2F3F5"/>
<path d="M20.3056 33.8691C20.8837 33.8691 21.4411 34.0785 21.8755 34.459C23.5161 35.8936 25.0979 37.2417 26.4934 38.4308L26.5005 38.437C30.5919 41.9237 34.125 44.9347 36.5833 47.9008C39.3312 51.2166 40.6112 54.3606 40.6112 57.7951C40.6112 61.1321 39.4669 64.2107 37.3895 66.4641C35.2872 68.7442 32.4026 70 29.2661 70C26.9219 70 24.775 69.2589 22.8853 67.7974C21.9316 67.0596 21.0672 66.1568 20.3056 65.1036C19.5437 66.1568 18.6796 67.0596 17.7256 67.7974C15.8359 69.2589 13.689 70 11.3447 70C8.20855 70 5.32364 68.7442 3.22139 66.4641C1.14392 64.2107 -3.8147e-06 61.1321 -3.8147e-06 57.7951C-3.8147e-06 54.3606 1.27963 51.2166 4.02759 47.9011C6.48585 44.9347 10.0186 41.924 14.1094 38.4377C15.5074 37.2466 17.0916 35.8964 18.7359 34.4584C19.17 34.0785 19.7277 33.8691 20.3056 33.8691V33.8691ZM29.2661 67.6211C31.7303 67.6211 33.994 66.6376 35.6407 64.8517C37.312 63.0389 38.2325 60.5329 38.2325 57.7951C38.2325 54.9065 37.159 52.3231 34.7518 49.4187C32.4252 46.6112 28.9646 43.6622 24.9578 40.2474L24.9504 40.2412C23.5496 39.0474 21.9617 37.694 20.309 36.249C18.6464 37.6968 17.056 39.0524 15.6524 40.248C11.6459 43.6628 8.18563 46.6112 5.85905 49.4187C3.45222 52.3231 2.37863 54.9065 2.37863 57.7951C2.37863 60.5329 3.29916 63.0389 4.97043 64.8517C6.61691 66.6376 8.8809 67.6211 11.3447 67.6211C13.1499 67.6211 14.8072 67.0472 16.2706 65.9157C17.5747 64.9069 18.4831 63.6316 19.0157 62.7392C19.2896 62.2804 19.7717 62.0065 20.3056 62.0065C20.8394 62.0065 21.3215 62.2804 21.5954 62.7392C22.1277 63.6316 23.0362 64.9069 24.3406 65.9157C25.804 67.0472 27.4613 67.6211 29.2661 67.6211V67.6211Z" fill="#F2F3F5"/>
<path d="M20.3 36.4001C20.7983 36.4001 21.2786 36.5806 21.653 36.9085C23.0669 38.1448 24.4301 39.3067 25.6328 40.3315L25.639 40.3369C29.1651 43.3417 32.21 45.9367 34.3286 48.493C36.6969 51.3507 37.8 54.0603 37.8 57.0203C37.8 59.8962 36.8139 62.5494 35.0234 64.4915C33.2116 66.4566 30.7256 67.5388 28.0225 67.5388C26.0021 67.5388 24.1519 66.9001 22.5233 65.6405C21.7014 65.0047 20.9563 64.2266 20.3 63.319C19.6434 64.2266 18.8986 65.0047 18.0764 65.6405C16.4478 66.9001 14.5976 67.5388 12.5772 67.5388C9.87438 67.5388 7.38808 66.4566 5.57629 64.4915C3.78586 62.5494 2.79999 59.8962 2.79999 57.0203C2.79999 54.0603 3.90282 51.3507 6.2711 48.4933C8.3897 45.9367 11.4344 43.342 14.9599 40.3374C16.1648 39.3109 17.5301 38.1472 18.9472 36.9079C19.3213 36.5806 19.802 36.4001 20.3 36.4001V36.4001ZM28.0225 65.4886C30.1461 65.4886 32.0971 64.641 33.5163 63.1019C34.9567 61.5395 35.75 59.3798 35.75 57.0203C35.75 54.5308 34.8248 52.3043 32.7502 49.8012C30.7451 47.3816 27.7626 44.84 24.3094 41.8971L24.303 41.8918C23.0958 40.8629 21.7273 39.6965 20.3029 38.4511C18.87 39.6989 17.4994 40.8672 16.2897 41.8976C12.8368 44.8406 9.85462 47.3816 7.8495 49.8012C5.77522 52.3043 4.84997 54.5308 4.84997 57.0203C4.84997 59.3798 5.64331 61.5395 7.08366 63.1019C8.50266 64.641 10.4538 65.4886 12.5772 65.4886C14.133 65.4886 15.5613 64.994 16.8225 64.0188C17.9464 63.1494 18.7293 62.0503 19.1883 61.2813C19.4244 60.8858 19.8399 60.6497 20.3 60.6497C20.7601 60.6497 21.1756 60.8858 21.4116 61.2813C21.8704 62.0503 22.6533 63.1494 23.7775 64.0188C25.0387 64.994 26.467 65.4886 28.0225 65.4886V65.4886Z" fill="#F2F3F5"/>
<path d="M20.3 32.5387C19.8017 32.5387 19.3213 32.3582 18.947 32.0302C17.533 30.7939 16.1699 29.6321 14.9672 28.6072L14.961 28.6019C11.4349 25.597 8.38997 23.002 6.27136 20.4457C3.90308 17.588 2.79999 14.8784 2.79999 11.9184C2.79999 9.04253 3.78613 6.38934 5.57655 4.44724C7.38834 2.48217 9.87438 1.3999 12.5775 1.3999C14.5979 1.3999 16.4481 2.03864 18.0767 3.29821C18.8986 3.93401 19.6436 4.71213 20.3 5.61976C20.9566 4.71213 21.7014 3.93401 22.5235 3.29821C24.1521 2.03864 26.0024 1.3999 28.0227 1.3999C30.7256 1.3999 33.2119 2.48217 35.0237 4.44724C36.8141 6.38934 37.8 9.04253 37.8 11.9184C37.8 14.8784 36.6972 17.588 34.3289 20.4455C32.2103 23.002 29.1656 25.5967 25.64 28.6013C24.4352 29.6278 23.0699 30.7915 21.6528 32.0308C21.2786 32.3582 20.798 32.5387 20.3 32.5387V32.5387ZM12.5775 3.45015C10.4538 3.45015 8.50292 4.2977 7.08366 5.83685C5.64331 7.39924 4.84997 9.55897 4.84997 11.9184C4.84997 14.4079 5.77522 16.6344 7.84977 19.1376C9.85489 21.5571 12.8373 24.0987 16.2906 27.0416L16.297 27.047C17.5042 28.0758 18.8727 29.2422 20.2971 30.4876C21.7299 29.2398 23.1006 28.0715 24.3102 27.0411C27.7632 24.0982 30.7454 21.5571 32.7505 19.1376C34.8248 16.6344 35.75 14.4079 35.75 11.9184C35.75 9.55897 34.9567 7.39924 33.5163 5.83685C32.0973 4.2977 30.1461 3.45015 28.0227 3.45015C26.467 3.45015 25.0387 3.94469 23.7775 4.91988C22.6536 5.78932 21.8707 6.88841 21.4116 7.65746C21.1756 8.05293 20.7601 8.28898 20.3 8.28898C19.8399 8.28898 19.4244 8.05293 19.1883 7.65746C18.7296 6.88841 17.9467 5.78932 16.8225 4.91988C15.5613 3.94469 14.133 3.45015 12.5775 3.45015V3.45015Z" fill="#F2F3F5"/>
</svg>
